<?xml version="1.0" standalone="no"?>
<!DOCTYPE svg PUBLIC "-//W3C//DTD SVG 20010904//EN"
 "http://www.w3.org/TR/2001/REC-SVG-20010904/DTD/svg10.dtd">
<svg version="1.0" xmlns="http://www.w3.org/2000/svg"
 width="735.000000pt" height="588.000000pt" viewBox="0 0 735.000000 588.000000"
 preserveAspectRatio="xMidYMid meet">

<g transform="translate(0.000000,588.000000) scale(0.100000,-0.100000)"
fill="#000000" stroke="none">
<path d="M3580 4548 c0 -315 -11 -422 -53 -505 -51 -99 -124 -135 -223 -110
-71 18 -74 17 -139 -88 -117 -189 -182 -446 -206 -811 -6 -96 -8 -181 -5 -189
7 -18 -78 -81 -139 -101 -139 -48 -232 71 -271 344 -8 58 -16 107 -17 109 -2
1 -21 -21 -43 -50 -178 -235 -264 -468 -264 -711 0 -283 113 -536 353 -790 73
-78 74 -115 2 -116 -45 0 -144 28 -182 51 -31 19 -33 19 -26 2 30 -82 230
-268 266 -247 6 4 9 3 4 -1 -24 -28 335 -173 580 -234 94 -24 118 -26 83 -8
-165 88 -350 236 -473 380 -111 129 -217 343 -252 512 -23 109 -31 312 -15
403 6 39 14 72 16 72 2 0 35 -26 73 -58 85 -71 151 -104 218 -110 141 -12 232
109 298 399 71 312 199 639 330 844 17 28 57 89 87 138 95 147 158 328 158
449 0 55 1 58 24 58 66 0 227 -188 319 -370 77 -154 99 -216 136 -373 44 -186
54 -462 25 -662 -13 -87 -14 -119 -5 -151 31 -113 147 -141 301 -72 35 16 69
27 75 24 7 -2 20 -30 30 -61 14 -45 17 -79 13 -158 -5 -100 -6 -101 -67 -221
-34 -67 -61 -131 -61 -143 0 -46 65 -55 161 -23 34 12 64 19 67 16 17 -17
-148 -287 -253 -416 -158 -193 -370 -369 -580 -481 l-60 -31 51 6 c70 9 259
58 369 96 142 49 326 146 417 219 87 71 169 161 133 147 -35 -14 -136 -27
-156 -21 -45 15 -12 96 57 142 179 119 309 302 366 513 20 74 23 108 23 265
-1 147 -5 198 -23 278 -31 139 -84 293 -144 416 l-51 106 -12 -55 c-13 -67
-59 -153 -98 -186 -55 -47 -132 -21 -165 55 -30 72 -34 110 -41 376 -7 241
-10 278 -30 340 -45 139 -131 291 -241 425 -63 77 -188 214 -222 244 -141 123
-242 208 -293 247 -60 46 -189 138 -212 153 -10 6 -13 -52 -13 -276z"/>
<path d="M2630 3970 c-1 -46 -40 -114 -98 -170 -62 -61 -103 -133 -126 -223
-18 -70 -33 -257 -20 -257 42 0 198 154 236 232 67 137 75 290 22 412 -13 30
-13 30 -14 6z"/>
</g>
</svg>
